<svg width="121" height="108" viewBox="0 0 121 108" fill="none" xmlns="http://www.w3.org/2000/svg">
<path d="M12.4512 43.2421C32.8663 31.4555 53.2847 19.6669 73.6997 7.88026C74.9716 7.35911 76.2159 6.75863 77.5183 6.33775C79.8074 5.59664 82.1545 5.39806 84.6133 5.75628C84.4493 6.0959 84.3412 6.33515 84.2219 6.56277C76.223 22.0021 68.2201 37.4345 60.2466 52.8864C59.8941 53.5706 59.4682 53.5988 58.8426 53.5655C41.6766 52.7322 24.5058 51.9063 7.33304 51.077C6.98577 51.0598 6.6409 51.0231 6.23442 50.9902C7.07809 48.8115 8.28341 46.9591 9.91731 45.399C10.7231 44.639 11.6023 43.959 12.4512 43.2421Z" fill="#7E5BD6"/>
<path d="M113.486 45.2703C114.156 47.378 114.825 49.4857 114.751 51.7417C114.734 52.296 114.709 52.8454 114.682 53.5641C100.211 49.4241 85.825 45.3124 71.3219 41.164C77.1639 29.8136 82.9694 18.5342 88.805 7.19653C90.7147 8.2301 92.2157 9.59029 93.5353 11.1732C93.7422 11.421 93.9775 11.639 94.2029 11.8716L113.488 45.2737L113.486 45.2703Z" fill="#7E5BD6"/>
<path d="M37.0057 101.871C40.7688 87.0537 44.5241 72.2549 48.3076 57.3627C48.6671 57.3774 49.0173 57.3839 49.3645 57.4011C53.094 57.5835 56.8211 57.7537 60.5462 57.9523C61.971 58.0277 62.9793 57.5 63.6385 56.1941C65.4835 52.5439 67.3739 48.9172 69.2969 45.1811C83.9256 49.3341 98.5456 53.4877 113.257 57.6655C112.426 59.4241 111.338 60.9274 109.944 62.145C108.668 63.2584 107.302 64.3192 105.841 65.1674C86.274 76.505 66.6819 87.7983 47.1016 99.1121C44.0074 100.899 40.7735 102.104 37.0072 101.865L37.0057 101.871Z" fill="#7E5BD6"/>
<path d="M43.7743 57.1685C40.1086 71.775 36.4807 86.2417 32.8217 100.813C30.5782 99.8719 28.7378 98.5081 27.2139 96.753C26.3622 95.7753 25.5866 94.7083 24.9351 93.5878C19.304 83.8817 13.7016 74.1545 8.10125 64.4307C6.59696 61.8252 5.66154 59.0364 5.54913 55.9991C5.54143 55.8358 5.53373 55.6724 5.54218 55.5134C5.54401 55.4533 5.59376 55.3974 5.65997 55.2594C18.3075 55.894 30.9835 56.5304 43.7817 57.1733L43.7743 57.1685Z" fill="#7E5BD6"/>
</svg>
